<svg width="18" height="18" viewBox="0 0 18 18" fill="none" xmlns="http://www.w3.org/2000/svg">
<path d="M0 0H17.4626V17.4626H0V0Z" fill="white" fill-opacity="0.01"/>
<path d="M13.097 2.91051H4.72945C3.63803 2.91051 1.4552 3.63812 1.4552 5.82095C1.4552 8.00378 3.63803 8.73139 4.72945 8.73139H12.7332C13.8246 8.73139 16.0074 9.459 16.0074 11.6418C16.0074 13.8247 13.8246 14.5523 12.7332 14.5523H4.36564" stroke="white" stroke-width="1.5" stroke-linecap="round" stroke-linejoin="round"/>
<path d="M14.5521 4.3657C15.3558 4.3657 16.0074 3.71416 16.0074 2.91048C16.0074 2.10679 15.3558 1.45526 14.5521 1.45526C13.7485 1.45526 13.0969 2.10679 13.0969 2.91048C13.0969 3.71416 13.7485 4.3657 14.5521 4.3657Z" fill="white" stroke="white" stroke-width="1.5" stroke-linejoin="round"/>
<path d="M2.91042 16.0074C3.7141 16.0074 4.36564 15.3559 4.36564 14.5522C4.36564 13.7485 3.7141 13.097 2.91042 13.097C2.10672 13.097 1.4552 13.7485 1.4552 14.5522C1.4552 15.3559 2.10672 16.0074 2.91042 16.0074Z" fill="white" stroke="white" stroke-width="1.5" stroke-linejoin="round"/>
</svg>
