<svg width="28" height="28" viewBox="0 0 28 28" fill="none" xmlns="http://www.w3.org/2000/svg">
<path d="M6.77783 22.6667V21.2222C6.77783 17.2335 10.0113 14 14.0001 14C17.9887 14 21.2223 17.2335 21.2223 21.2222V22.6667" stroke="black" stroke-width="2" stroke-linecap="round"/>
<path d="M13.9998 13.9999C16.3931 13.9999 18.3332 12.0599 18.3332 9.66659C18.3332 7.27336 16.3931 5.33325 13.9998 5.33325C11.6065 5.33325 9.6665 7.27336 9.6665 9.66659C9.6665 12.0599 11.6065 13.9999 13.9998 13.9999Z" stroke="black" stroke-width="2" stroke-linecap="round" stroke-linejoin="round"/>
<path d="M27 1.86667V26.1333C27 26.612 26.612 27 26.1333 27H1.86667C1.38802 27 1 26.612 1 26.1333V1.86667C1 1.38802 1.38802 1 1.86667 1H26.1333C26.612 1 27 1.38802 27 1.86667Z" stroke="black" stroke-width="2" stroke-linecap="round" stroke-linejoin="round"/>
</svg>
